<!--?xml version="1.0" encoding="utf-8"?-->
<!-- Generator: Adobe Illustrator 18.1.1, SVG Export Plug-In . SVG Version: 6.00 Build 0)  -->

<svg version="1.1" id="_x32_" xmlns="http://www.w3.org/2000/svg" xmlns:xlink="http://www.w3.org/1999/xlink" x="0px" y="0px" viewBox="0 0 512 512" style="width: 256px; height: 256px; opacity: 1;" xml:space="preserve">
<style type="text/css">
	.st0{fill:#4B4B4B;}
</style>
<g>
	<path class="st0" d="M255.995,169.648c19.802,0,35.844-16.174,35.844-36.146c0-19.981-16.042-36.172-35.844-36.172
		c-19.797,0-35.848,16.191-35.848,36.172C220.147,153.475,236.198,169.648,255.995,169.648z" style="fill: rgb(75, 75, 75);"></path>
	<path class="st0" d="M143.528,233.512h123.858h101.068c7.938,0.009,15.193-3.265,20.348-8.499
		c5.19-5.198,8.402-12.462,8.402-20.392V70.734c0-7.912-3.212-15.193-8.402-20.392c-5.155-5.216-12.41-8.507-20.348-8.507H337.34
		c-2.511,0.009-4.848-1.488-5.925-3.912l-9.312-20.856C317.487,6.722,307.242,0,295.869,0h-79.752
		c-11.374,0-21.617,6.722-26.243,17.066l-9.316,20.856c-1.076,2.424-3.409,3.921-5.92,3.912h-31.109
		c-7.92,0-15.198,3.291-20.357,8.507c-5.173,5.199-8.385,12.48-8.385,20.392v133.888c0,7.93,3.212,15.194,8.385,20.392
		C128.331,230.247,135.608,233.521,143.528,233.512z M349.856,74.146H369.6v19.745h-19.744V74.146z M209.956,87.161
		c11.736-11.859,28.063-19.246,46.04-19.228c17.964-0.018,34.299,7.369,46.035,19.228c11.758,11.858,19.044,28.278,19.036,46.342
		c0.009,18.047-7.277,34.483-19.036,46.316c-11.736,11.868-28.072,19.254-46.035,19.254c-17.968,0-34.304-7.378-46.04-19.254
		c-11.758-11.833-19.044-28.269-19.036-46.316C190.911,115.439,198.197,99.02,209.956,87.161z" style="fill: rgb(75, 75, 75);"></path>
	<polygon class="st0" points="296.329,286.96 326.199,286.96 326.199,253.247 185.796,253.247 185.796,286.96 215.666,286.96 
		105.142,485.867 129.788,500.263 237.533,324.646 241.725,512 270.27,512 274.462,324.646 382.212,500.263 406.858,485.867 	" style="fill: rgb(75, 75, 75);"></polygon>
</g>
</svg>
